<?xml version="1.0" encoding="utf-8"?>
<!-- Generator: Adobe Illustrator 25.2.1, SVG Export Plug-In . SVG Version: 6.00 Build 0)  -->
<svg version="1.1" id="Layer_1" xmlns="http://www.w3.org/2000/svg" xmlns:xlink="http://www.w3.org/1999/xlink" x="0px" y="0px"
	 viewBox="0 0 406.89 444.28" style="enable-background:new 0 0 406.89 444.28;" xml:space="preserve">
<style type="text/css">
	.st0{fill:#FCECDB;}
	.st1{fill:#F9DDBF;}
	.st2{fill:#C6916D;}
	.st3{fill:#EFCBAB;}
	.st4{fill:#EAC3A0;}
	.st5{fill:#E0B594;}
	.st6{fill:#D39E7A;}
	.st7{fill:#F4A269;}
	.st8{fill:#FFB27D;}
	.st9{fill:#C65447;}
	.st10{fill:#163560;}
	.st11{fill:#1C468A;}
	.st12{fill:#B5453C;}
	.st13{fill:#9E332E;}
	.st14{fill:#2E3552;}
	.st15{fill:#599DAD;}
	.st16{fill:#6BB7BF;}
	.st17{fill:#86D1CD;}
	.st18{fill:#FFEBDC;}
	.st19{fill:#EFCDAF;}
</style>
<path class="st0" d="M11.64,429.68c0,0-23.54-58.21,10.9-92.97c44.43-44.83,101.84-7.36,123.38-8.45
	c21.54-1.09,22.76-44.11,87.12-49.25c49.77-3.97,131.5-4.29,114.06,66c-13.26,53.44,60.5,25.76,46.14,84.79L11.64,429.68z"/>
<g>
	<path class="st1" d="M397.77,378.76c-4.34,27.81-32.72,45.52-61.83,45.52h-57.65l4.51-162.1c0,0,55.01-17.66,68.82-0.86
		c12.1,14.71,44.93,72.96,46.66,107.43C398.45,372.22,398.27,375.56,397.77,378.76z"/>
	<path class="st2" d="M244.72,279.35c0,0,77.78-39.7,92.51-13.77c7.82,13.77,29.35,68.7,30.94,103.17
		c1.54,33.5-27.48,55.52-57.33,55.52h-53.02L244.72,279.35z"/>
	<path class="st3" d="M259.34,301.36c-0.66,3.37-6.95,6.5-16.3,9.27c-1.65,0.49-3.39,0.97-5.21,1.43
		c-31.8,8.12-88.14,12.66-93.51,10.26c-7.42-3.31-52.96-165.11-52.96-165.11s43.47-1.63,77.99-2.43
		c11.81-0.27,22.57-0.44,30.19-0.42c0.93,0,1.8,0.06,2.62,0.18c3.3,0.47,5.74,1.85,7.68,3.93c5.56,5.97,6.94,17.77,12.08,30.81
		c5.09,12.89,11.33,28.99,17.26,44.96c1.53,4.12,3.03,8.22,4.49,12.27c0.41,1.14,0.82,2.28,1.22,3.41
		C253.66,274.42,260.4,295.9,259.34,301.36z"/>
	<path class="st4" d="M397.77,378.76c-4.34,27.81-32.72,45.52-61.83,45.52h-28.28C326.52,411.49,343.57,372.1,397.77,378.76z"/>
	<path class="st5" d="M244.91,249.93c-1.45-0.24-3.31-0.54-5.42-0.9c-0.44-0.45-0.79-0.9-1-1.36c-0.85-1.87-0.27-7.25,0.71-13.41
		c-5.92-15.97-12.17-32.06-17.26-44.96c-5.15-13.04-6.52-24.84-12.08-30.81c-1.94-2.08-4.38-3.46-7.68-3.93
		c-4.59,0.06-9.43,0.14-14.43,0.24c-1.78,3.52-4.84,6.84-10.12,9.63c-23.59,12.42-6.09,38-6.09,38c0.17,0.12,9.36,18.38,9.36,18.38
		c-0.03-1.28,1.21-3.56,3.33-6.47c1.56,10.92,4.11,22.07,7.15,30.06c-1.67,8.43-5.94,20.99-8.23,30.6
		c-1.83,7.66-2.4,13.44,0.63,13.72c0.34,0.03,0.72,0.03,1.12,0c-0.19,2.67,0.33,5.48,1.84,8.4c5.91,11.43,34.34,13.48,56.32,13.52
		c9.34-2.77,15.64-5.9,16.3-9.27C260.4,295.9,253.66,274.42,244.91,249.93z"/>
	<path class="st6" d="M352.37,399.37c-11.13,15.46-28.2,25.37-47.22,25.07l-81.75,0.04l-39.17,0.02l44.07-145.13
		c0,0,111.53-11.1,125.29,3.7c6.39,6.87,9.97,37.98,11.98,69.34C366.7,370.09,361.56,386.62,352.37,399.37z"/>
	<path class="st2" d="M352.37,399.37c-11.13,15.46-28.2,25.37-47.22,25.07l-81.75,0.04c9.62-8.08,39.87-30.99,72.27-29.9
		C320.23,395.4,339.72,395.04,352.37,399.37z"/>
	<g>
		<path class="st7" d="M251.87,177.79c0,0,6.79,10.05,10.67,31.18c3.39,18.51,6.37,25.34,11.27,29.13c4.9,3.8,32.2,15,32.2,15
			l-2.04,4.78c0,0-40.01-5.45-44.51-12.14c-4.49-6.69-21.63-46.2-20.3-55.3C240.49,181.35,251.87,177.79,251.87,177.79z"/>
		<g>
			<path class="st8" d="M349.85,398.52c-0.36,3.9,5.07,4.85,11.36,5.16c6.29,0.31,4.39,1.6,13.01,3.16
				c8.62,1.56,12.08-0.8,12.7-1.96c0.56-1.03-3.45-2.65-7.73-4.48c-0.54-0.23-1.08-0.46-1.61-0.7c-4.81-2.11-7.51-6.43-11.26-10.43
				c-3.55-3.79-6.92-15.91-6.92-15.91l-11.72-2.5c0,0,3.29,10.91,4.43,15.57c0.67,2.74-0.32,5.8-1.2,8.14
				C350.45,395.84,349.98,397.14,349.85,398.52z"/>
			<path class="st9" d="M361.22,403.68c6.29,0.31,4.39,1.6,13.01,3.16c8.62,1.56,12.08-0.8,12.7-1.96c0.56-1.03-3.45-2.65-7.73-4.48
				l-0.07,0.07c0,0-6.06,2.06-13.06,0.16c-5.7-1.55-11.22-4.96-15.15-6.06c-0.47,1.27-0.95,2.57-1.08,3.94
				C349.49,402.42,354.92,403.37,361.22,403.68z"/>
		</g>
		<path class="st10" d="M233.16,259.56c0,0,77.87-5.86,92.52,3.39c14.66,9.25,38.17,117.01,38.17,117.01s-1.45,1.16-4.69,1.51
			c-3.01,0.33-9.65-1.45-9.65-1.45s-33.79-48.22-36.17-60.36c-2.38-12.15-1.8-22.99-7.22-23.28s-72.98,8.21-83.19-9.79
			c-10.22-18-1.77-35.82-1.77-35.82L233.16,259.56z"/>
		<g>
			<path class="st8" d="M320.06,411.02c-0.36,3.9,5.07,4.85,11.36,5.16c6.29,0.31,4.39,1.6,13.01,3.16
				c8.62,1.56,12.08-0.8,12.7-1.96c0.56-1.03-3.45-2.65-7.73-4.48c-0.54-0.23-1.08-0.46-1.61-0.7c-4.81-2.11-7.51-6.43-11.26-10.42
				c-3.55-3.79-6.92-15.91-6.92-15.91l-11.72-2.5c0,0,3.29,10.91,4.43,15.57c0.67,2.74-0.32,5.8-1.2,8.14
				C320.66,408.35,320.18,409.65,320.06,411.02z"/>
			<path class="st9" d="M331.42,416.19c6.29,0.31,4.39,1.6,13.01,3.16c8.62,1.56,12.08-0.8,12.7-1.96c0.56-1.03-3.45-2.65-7.73-4.48
				l-0.07,0.07c0,0-6.06,2.06-13.06,0.16c-5.7-1.55-11.22-4.96-15.15-6.06c-0.47,1.27-0.95,2.57-1.08,3.94
				C319.7,414.93,325.13,415.88,331.42,416.19z"/>
		</g>
		<path class="st11" d="M217.91,264.39c0,0,69.17,3.27,83.46,13.09c14.29,9.82,33.59,118.41,33.59,118.41s-1.5,1.11-4.75,1.33
			c-3.02,0.21-9.59-1.82-9.59-1.82s-31.89-49.5-33.79-61.73c-1.91-12.23-0.9-23.04-6.31-23.54c-5.4-0.5-73.24,5.37-82.75-13.02
			C188.26,278.73,217.91,264.39,217.91,264.39z"/>
		<path class="st12" d="M242.56,112.17c-3.07-2.03-6.88-2.48-9.56-2.5c0.74-0.67,2.11-0.83,2.11-0.83
			c-1.64-0.36-5.45,1.04-5.45,1.04c-22.47-10.43-28.36,23.3-28.41,31.22c-0.04,7.92-0.59,17.01-12.58,23.32
			c-23.59,12.41-6.09,38-6.09,38c0.17,0.12,9.36,18.38,9.36,18.38c-0.16-6.42,31.51-38.1,47.53-47.16
			c4.1-5.25,6.08-14.88,6.23-15.64c-1.16,7.66-2.76,11.9-4.11,14.25C255.39,161.16,250.7,117.54,242.56,112.17z"/>
		<path class="st8" d="M215,166.21c0,0,6.11,0.26,12.55,0.88c4.38,0.42,9.05,0.9,11.51,1.93c6.1,2.55,5.46,13.34-7.34,11.34
			C218.94,178.36,214.11,169.41,215,166.21z"/>
		<path class="st8" d="M238.53,174.08c0.07,0.04,1.82,9.29-6.55,8.92c-5.5-0.24-17.36-6.9-16.31-11.6c0.5-2.24,4.65-8.04,5.49-21.3
			l1,0.27l16.83,4.51c0,0-0.75,5.34-1.09,10.4C237.6,169.52,237.58,173.57,238.53,174.08z"/>
		<path class="st7" d="M238.99,154.88c0,0-0.75,5.34-1.09,10.4c-9.53-0.91-13.99-9.95-15.74-14.91L238.99,154.88z"/>
		<path class="st12" d="M220.52,148.39c0,0-4.47-8.24-5.22-15.07c-0.54-4.88,3.11-22.6,20.91-18.83c0,0,5.19,0.86,9.87,4.5
			c3.73,2.9,8.98,8.96,1.64,24.14l-1.99,5.16L220.52,148.39z"/>
		<path class="st8" d="M241.85,159.88c0,0-22.6-1.13-21.68-15.2c0.92-14.07-1.37-23.69,13.1-23.56
			c14.47,0.13,16.92,5.68,17.76,10.45C251.86,136.34,247.76,159.81,241.85,159.88z"/>
		<path class="st12" d="M243.57,121.46c0,0-7.28,16.09-16.93,17.9c-9.65,1.81-13.6-1.01-13.6-1.01s7.66-5.3,9.85-15.29
			C222.89,123.06,239.43,113.3,243.57,121.46z"/>
		<path class="st12" d="M241.95,122.7c0,0,4.37,3.99,5.26,7.65c0.89,3.66,0.9,11.06,3.07,10.96c0,0,5.41-10.91,0.59-17.6
			C245.77,116.61,241.95,122.7,241.95,122.7z"/>
		<path class="st11" d="M264.47,260.74c-1.83,2.19-7.54,2.86-13.65,3.86c-4.8,0.79-9.85,1.79-13.44,3.9
			c-8.15,4.78-34.77,20.95-42.58,20.22c-3.03-0.28-2.46-6.06-0.63-13.72c2.88-12.1,8.92-28.91,8.92-36.21
			c0-3.99,1.33-13.43,3.1-24.22c0.14-0.87,0.29-1.75,0.44-2.63c3.51-20.98,8.36-45.72,8.36-45.72s5.41,11.81,15.96,11.81
			c10.55,0,8.1-9.01,8.1-9.01s9.63,1.13,11.9,3.58c2.28,2.45,8.04,13.04,9.19,15.93c0,0,0.23,3.67-8.86,5.42
			c0,0,2.22,9.97,2.48,16.62c0.19,4.91-3.35,20.29-4.37,29.85c-0.36,3.39-0.41,6.04,0.14,7.25c0.7,1.54,2.98,3.08,5.57,4.59
			C260.25,255.26,266.64,258.14,264.47,260.74z"/>
		<path class="st10" d="M255.11,252.26c5.84,9.96-15.84,12.95-19.42,15.06c-8.15,4.78-33.07,22.13-40.87,21.39
			c-3.03-0.28-2.46-6.06-0.63-13.72c2.88-12.1,8.92-28.91,8.92-36.21c0-3.99,1.33-13.43,3.1-24.22l9.39-9.02
			c0,0,10.06,26.01,19.66,30.28c5.03,2.23,10.28,3.71,14.14,4.6c-0.36,3.39-0.41,6.04,0.14,7.25
			C250.24,249.22,252.52,250.75,255.11,252.26z"/>
		<path class="st8" d="M212.12,174c0,0-8.03-4.88-15.8,4.37c-7.77,9.25,5.52,75.39,17.02,78.78c12.78,3.77,49.7-0.6,49.7-0.6
			l-0.71-5.77c0,0-39.3-7.54-40.93-9.64C219.77,239.05,216.2,175.07,212.12,174z"/>
		<path class="st11" d="M215,166.21c0,0-16.49,1.49-21.28,6.91c-4.79,5.42-6.19,20.12-6.19,20.12s14.52,11.72,32.02,7.17L215,166.21
			z"/>
		<g>
			<rect x="266.9" y="259.64" class="st13" width="21.78" height="2.57"/>
			<path class="st13" d="M284.06,261.87c0.21-0.85,20.03-31.96,20.03-31.96h44.08l-22.11,31.13L284.06,261.87z"/>
			<path class="st12" d="M285.91,262.22c0.21-0.85,20.09-32.32,20.09-32.32h42.17l-21.04,32.32H285.91z"/>
			<path class="st13" d="M323.08,246.17c-0.43,1.26-1.81,2.28-3.07,2.28c-1.26,0-1.93-1.02-1.5-2.28c0.43-1.26,1.81-2.28,3.07-2.28
				C322.85,243.88,323.52,244.9,323.08,246.17z"/>
		</g>
		<path class="st8" d="M259.13,250.44c0,0,12.8-2.48,14.24-1.86c1.44,0.62,9.49,7.84,8.67,9.29c-0.83,1.44-4.13,2.48-7.84,1.24
			c-3.72-1.24-11.76-1.86-13.21-3.72C259.54,253.54,259.13,250.44,259.13,250.44z"/>
	</g>
	<path class="st1" d="M284.63,380.21c-4.68,26.97-30.33,44.07-56.63,44.07h-53.02l4.15-162.1c0,0,50.59-17.66,63.29-0.86
		c11.13,14.71,41.32,72.96,42.91,107.43C285.51,372.74,285.26,376.57,284.63,380.21z"/>
	<path class="st4" d="M284.63,380.21c-4.68,26.97-30.33,44.07-56.63,44.07h-42.43C205.43,410.82,232.17,373.62,284.63,380.21z"/>
	<path class="st6" d="M202.43,424.16c-0.4,0.03-0.79,0.05-1.19,0.08c-0.84,0.04-1.68,0.07-2.52,0.09c-0.28,0-0.56,0.01-0.84,0.01
		h-53.02l0-0.03c-1.01,0.01-2.03,0.03-3.06,0.04c-5.46,0.07-11.16,0.13-16.45,0.18c-0.89,0.01-1.76,0.02-2.62,0.02
		c-0.32,0-0.64,0-0.95,0.01c-5.23,0.04-9.85,0.05-13.14,0.03c-4.63-0.03-9-0.36-13.11-1.01c-5.3-0.84-10.16-2.21-14.61-4.18
		c-1.6-0.71-3.15-1.49-4.65-2.36c-2.01-1.16-3.93-2.47-5.75-3.92c-4.7-3.76-8.77-8.51-12.23-14.36c-2.41-4.07-4.52-8.68-6.35-13.85
		c-2.3-6.49-4.15-13.87-5.58-22.22c-2.04-11.92-3.2-25.8-3.55-41.85c-0.14-6.46-0.15-13.28-0.03-20.45
		c0.19-11.47,0.71-23.87,1.53-37.25c1.16-18.79,2.95-39.53,5.3-62.35c2.15-20.84,4.62-35.41,8.22-38.73
		c5.31-4.9,16.39-6.87,24.1-7.66c0,0,0,0,0.01,0c4.78-0.49,8.26-0.53,8.26-0.53c9.42,0,17.78,6.76,20.81,16.81
		c6.15,20.45,17.14,57.02,28.57,95.28c0.06,0.19,0.12,0.38,0.17,0.58c0.66,2.2,1.31,4.4,1.97,6.61c0.1,0.34,0.2,0.67,0.3,1.01
		c0.64-0.29,1.31-0.59,2-0.89c0.02-0.01,0.04-0.02,0.07-0.03c2.74-1.22,5.84-2.55,9.19-3.9h0c1.74-0.7,3.53-1.42,5.39-2.13
		c5.23-2.01,10.88-3.99,16.6-5.7c2.54-0.76,5.1-1.47,7.64-2.09c3.26-0.81,6.5-1.49,9.66-2c0.11-0.02,0.2-0.03,0.28-0.04
		c0.37-0.06,0.75-0.12,1.12-0.17c13.61-2,25.43-0.61,30.31,8.01c7.82,13.81,29.35,68.9,30.93,103.48
		C256.68,400.53,230.61,422.05,202.43,424.16z"/>
	<path class="st1" d="M117.38,280.6c0,0-27.21-110.87-29.18-120.18c-0.87-4.15-3.57-5.65-6.29-6.04c4.78-0.49,8.26-0.53,8.26-0.53
		c9.42,0,17.78,6.74,20.81,16.75c6.59,21.85,18.73,62.13,31.02,103.17C141.38,273.75,117.38,280.6,117.38,280.6z"/>
	<path class="st2" d="M217.65,333.91c-7.28-12.04-1.17-14.3-2.28-41.26c-1.12-26.96-13.67-24.74-18.88-29.95
		c-0.95-0.96-1.76-2.92-2.53-5.54c-0.37,0.05-0.74,0.11-1.12,0.17c-0.08,0.01-0.17,0.03-0.28,0.04c-3.16,0.51-6.4,1.19-9.66,2
		c-2.54,0.63-5.1,1.33-7.64,2.09c-5.72,1.71-11.37,3.69-16.6,5.7c-1.85,0.71-3.65,1.42-5.39,2.13
		c-4.51,28.29-11.48,155.05-11.48,155.05c0.06,0.06,0.11,0.12,0.17,0.18c5.69-0.05,11.85-0.12,17.7-0.19
		c0.84-0.01,1.66-0.02,2.48-0.03l0,0.03h40.01c0.05-0.03,0.11-0.06,0.16-0.1c0.04-0.02,0.07-0.04,0.11-0.07
		c10.75-6.66,8.35-20.04,5.82-28.42c-1.02-8.96-4.98-19.46-8.22-29.22c1-2.97,2.41-4.67,8.47-6.9c6.73-2.48,8.49-13.06,8.49-13.06
		c1.8,4.73-2.31,11.27-2.42,11.44C214.81,357.71,224.85,345.8,217.65,333.91z"/>
</g>
<path class="st14" d="M390.9,428.29H14.98c-0.4,0-0.72,0.33-0.72,0.72v0.62c0,0.4,0.33,0.72,0.72,0.72H390.9
	c0.4,0,0.72-0.33,0.72-0.72v-0.62C391.63,428.62,391.3,428.29,390.9,428.29z"/>
<g>
	<g>
		<path class="st15" d="M124.17,347.26c0,0-12.74-14.86-0.79-24.3c0,0,8.73-5.29,15.85-4.86c0,0-10.09,16.92-6.82,18.6
			c3.26,1.68,9.88-19.66,9.88-19.66s19.87-1.93,26.26,1.15c0,0-16.98,13.9-13.41,14.73c3.58,0.83,21.92-12.82,21.92-12.82
			s18.49,3.15,17.51,14.43c-0.99,11.28-7.36,14.76-10.16,14.46c-2.8-0.3-19.18-6.55-19.54-4.26c-0.36,2.29,9.5,9.79,16.41,10.14
			c0,0-13.04,14.38-21.7,10.23c-8.66-4.15-9.4-10.73-14.81-13.19c-5.4-2.47-10.01-2.46-7.78,0.06c2.23,2.52,12,4.96,15.09,10.42
			c3.09,5.46,5.86,9.15-3.1,7.8c-8.96-1.35-23.54-7.91-24.18-15.42C124.17,347.26,124.17,347.26,124.17,347.26z"/>
		<g>
			<path class="st15" d="M185.48,334.83c0,0-50.23-1.94-61.32,12.43c0,0-2.45,7.35-10,14.04l-1.18,3.21c0,0,8.7-9.18,11.82-9.73
				C124.81,354.77,119.94,336.97,185.48,334.83z"/>
			<path class="st15" d="M114.17,361.3c0,0-10.78,7.97-11.53,22.22l1.96,0.18c0,0,3.44-14.73,9.67-20.49
				C120.48,357.44,114.17,361.3,114.17,361.3z"/>
		</g>
	</g>
	<g>
		<path class="st16" d="M79.63,328.57c0,0,20.26-11.35,10.81-26.75c0,0-7.57-9.46-15.67-11.89c0,0,4.32,22.97,0,23.51
			c-4.32,0.54-2.97-25.94-2.97-25.94s-21.34-10.27-29.72-9.46c0,0,13.24,22.42,8.92,21.88S31.81,276.7,31.81,276.7
			s-21.88-4.05-25.4,8.92c-3.51,12.97,2.16,19.45,5.4,20.26c3.24,0.81,24.05,0.54,23.51,3.24c-0.54,2.7-14.59,7.02-22.42,4.59
			c0,0,8.65,21.34,19.99,20.26c11.35-1.08,14.86-8.11,21.88-8.65c7.02-0.54,12.16,1.35,8.65,3.24c-3.51,1.89-15.4,0.62-21.07,5.44
			c-5.67,4.82-10.27,7.8,0.27,9.96c10.54,2.16,29.45,0.81,33.23-7.29C79.63,328.57,79.63,328.57,79.63,328.57z"/>
		<g>
			<path class="st16" d="M16.41,289.66c0,0,56.74,18.37,63.22,38.91c0,0-0.27,9.19,5.4,19.72v4.05c0,0-5.94-13.78-9.19-15.67
				C75.85,336.68,88.55,318.84,16.41,289.66z"/>
			<path class="st16" d="M85.03,348.29c0,0,8.75,13.29,3.76,29.46l-2.25-0.6c0,0,2.18-17.81-2.39-26.77
				C79.57,341.42,85.03,348.29,85.03,348.29z"/>
		</g>
	</g>
	<g>
		<path class="st17" d="M111.87,312.92c0,0-26.71-14.96-14.25-35.26c0,0,9.97-12.47,20.66-15.67c0,0-5.7,30.27,0,30.98
			c5.7,0.71,3.92-34.19,3.92-34.19s28.14-13.53,39.18-12.47c0,0-17.45,29.56-11.75,28.85c5.7-0.71,25.29-30.63,25.29-30.63
			s28.85-5.34,33.48,11.75c4.63,17.09-2.85,25.64-7.12,26.71c-4.27,1.07-31.7,0.71-30.98,4.27c0.71,3.56,19.23,9.26,29.56,6.05
			c0,0-11.4,28.14-26.36,26.71c-14.96-1.42-19.59-10.68-28.85-11.4c-9.26-0.71-16.03,1.78-11.4,4.27c4.63,2.49,20.3,0.82,27.78,7.18
			c7.48,6.36,13.53,10.28-0.36,13.12c-13.89,2.85-38.82,1.07-43.81-9.62C111.87,312.92,111.87,312.92,111.87,312.92z"/>
		<g>
			<path class="st16" d="M195.21,261.63c0,0-74.79,24.22-83.34,51.29c0,0,0.36,12.11-7.12,26v5.34c0,0,7.84-18.16,12.11-20.66
				C116.85,323.6,100.11,300.1,195.21,261.63z"/>
			<path class="st16" d="M104.74,338.92c0,0-11.53,17.52-4.96,38.84l2.97-0.8c0,0-2.88-23.48,3.15-35.29
				C111.94,329.85,104.74,338.92,104.74,338.92z"/>
		</g>
	</g>
	<path class="st3" d="M110.97,423.99c28.9,0,52.32-23.43,52.32-52.32H58.64C58.64,400.56,82.07,423.99,110.97,423.99z"/>
	<path class="st18" d="M123.84,423.59c-2.13,0.27-4.3,0.4-6.5,0.4c-28.9,0-52.32-23.43-52.32-52.32h13
		C78.02,398.36,98.01,420.39,123.84,423.59z"/>
	<path class="st3" d="M164.01,426.65H57.92l0,0c0-3.57,2.89-6.46,6.46-6.46h93.18C161.12,420.2,164.01,423.09,164.01,426.65
		L164.01,426.65z"/>
	<rect x="56.92" y="371.67" class="st19" width="107.56" height="1.61"/>
</g>
</svg>
